<?xml version="1.0" encoding="UTF-8"?>
<svg xmlns="http://www.w3.org/2000/svg" xmlns:xlink="http://www.w3.org/1999/xlink" id="Camada_1" data-name="Camada 1" viewBox="0 0 144 144">
  <defs>
    <style>
      .cls-1 {
        fill: #a4a7aa;
        fill-rule: evenodd;
      }

      .cls-2 {
        fill: url(#New_Gradient_Swatch_2);
      }
    </style>
    <linearGradient id="New_Gradient_Swatch_2" data-name="New Gradient Swatch 2" x1="124.9" y1="-401.11" x2="-8.21" y2="-388.51" gradientTransform="translate(0 478.33)" gradientUnits="userSpaceOnUse">
      <stop offset="0" stop-color="#274596"></stop>
      <stop offset="1" stop-color="#5cbcae"></stop>
    </linearGradient>
  </defs>
  <path class="cls-1" d="m110.56,114.51c-1.85-4.86-4.13-10.85-6.06-17.06-3.62-11.64-6.63-22.89-6.55-22.94,2.32-1.51,23.09-15.28,38.09-23.61.23-.13,4.64-2.54,5.07-5.55.1-.83,0-1.64-.27-2.43-.75-2.19-2.65-4.15-7.98-4.48-4.19-.31-11.51-.75-19.6-.31-7.89.27-16.33,1.1-22.65,2.14,0,0-2.52-15.07-3.42-21.27-.06-.39-.48-2.74-1.12-3.74-.66-1.02-1.74-1.96-3.51-2.27-.4-.07-.78-.1-1.13-.11h-.12c-1.26.01-2.23.42-2.95.92-.99.69-2.29,2.58-2.65,3.07-4.03,5.51-15.35,21.82-21,31.13,0,0-17.63,5.28-28.36,9.64-3.16,1.28-3.47,2.82-3.55,3.66-.06.61-.03,2.18,2.47,4.23,3.13,2.56,12.96,10.47,12.96,10.47-3.47,5.35-16.82,31.91-18.11,39.3-.38,2.13-.34,4.33,1.24,6.35.99,1.26,2.78,2.15,4.65,2.21,2.27.03,5.38-2.31,6.7-3.24,10.62-7.41,31.37-22.93,31.37-22.93,7.81,6.84,24.32,21.59,33.06,29.49,1.02.92,4.24,3.84,7.37,3.89,5.98.17,7.92-4.82,8.2-6.55.48-4.01-1.56-8.46-2.16-10.03m-50.2-27.45s-15.19-12.33-16-13c0,0,9.62-17.58,12.61-22.04,1.84-.5,15.96-3.03,22.62-3.8,0,0,1.98,10.68,4.94,22.96,0,0-19.56,12.66-24.17,15.89m31.49,11.35c1.85,6.18,3.97,12.64,5.01,15.79.28.81.32,1.61.04,2.1-.27.45-.83.63-1.57.3-.31-.14-1.2-.83-1.29-.91-4.04-3.47-25.03-21.43-25.03-21.43l18.11-12.5s2.36,8.75,4.72,16.64m-57.4,6.82c-.28.19-1.38.9-1.67,1.05-2.36,1.13-2.83-.25-2.99-.82-.28-1.12.7-3.12.81-3.35,2.23-4.73,11.2-23.2,11.2-23.2,0,0,11.11,9.24,13.84,11.6,0,0-16.04,11.29-21.19,14.73m-5.04-42.73c-.25-.19-1.04-.77-1-1.55.04-.36.24-.73.71-1.04.18-.12.83-.39.97-.44,1.85-.67,10.08-3.56,21.31-6.19-2.9,4.94-4.84,8.01-6.2,10.32-3.12,5.33-3.11,5.54-4.39,7.73,0,0-9.16-7.07-11.4-8.83m43.62-34.36c.13-.17,1.21-1.48,1.99-1.48s1.08.91,1.17,1.44c.19,1.16.43,2.85.89,5.58.67,4.01,1.47,8.64,1.47,8.64-4.34.83-14.75,3.22-18.18,4.18,3.66-5.86,10.46-15.61,12.67-18.36m29.59,18c6.51-.31,13.38-.36,13.95-.36,1.65.02,3,.17,3.26.87.33.92-.41,1.98-1.59,2.8-.25.17-4.17,2.69-8.37,5.46-6.43,4.22-14.48,9.35-14.48,9.35.05.15-3.07-13.66-3.67-17.36,0,0,5.37-.5,10.89-.76"></path>
  <path class="cls-2" d="m136.74,88.46c0-.14,0-.29-.02-.43,0-.04,0-.08-.01-.12,0-.04,0-.08-.01-.12,0-.04,0-.08-.02-.12,0-.04-.01-.08-.02-.12,0-.04-.01-.08-.02-.12,0-.04-.02-.08-.02-.12,0-.04-.02-.08-.03-.12-.03-.18-.07-.37-.14-.55-.01-.04-.02-.09-.03-.14,0,0,0,0,0-.01-.01-.03-.01-.06-.02-.1,0,0,0-.01-.01-.02,0-.03-.01-.06-.02-.09,0-.01-.01-.02-.02-.03,0-.02-.01-.05-.02-.08,0-.02-.01-.03-.02-.04,0-.02,0-.04-.02-.07,0-.02-.02-.03-.03-.05,0-.02,0-.04-.01-.06,0-.02-.02-.04-.03-.06,0-.01,0-.03-.01-.04,0-.03-.03-.05-.04-.07,0-.01,0-.02,0-.03-.01-.03-.03-.06-.04-.08,0,0,0-.02,0-.02-.01-.03-.03-.06-.05-.1,0,0,0,0,0-.01-.01-.04-.04-.07-.05-.11,0,0,0,0,0,0-.07-.18-.15-.36-.25-.52-.02-.04-.04-.08-.06-.12-.02-.04-.04-.08-.06-.12-.02-.04-.04-.08-.07-.12-.02-.04-.04-.08-.07-.12-.02-.04-.05-.08-.07-.12-.02-.04-.05-.08-.07-.12-.02-.04-.05-.08-.08-.12-.02-.04-.05-.08-.08-.12-.02-.04-.05-.08-.08-.12-.02-.04-.06-.08-.08-.12-.03-.04-.06-.08-.09-.12-.03-.04-.06-.08-.09-.12-.05-.08-.11-.15-.17-.22-.08-.12-.16-.23-.25-.33-.03-.04-.06-.08-.09-.12-.03-.04-.06-.08-.1-.12-.03-.04-.06-.08-.1-.12-.03-.04-.07-.08-.1-.12-.03-.04-.07-.08-.1-.12-.03-.04-.07-.08-.11-.12-.04-.04-.07-.08-.11-.12-.04-.04-.07-.08-.11-.12-.04-.04-.07-.08-.11-.12-.04-.04-.08-.08-.12-.12-.04-.04-.08-.08-.12-.12-.04-.04-.08-.08-.12-.12-.04-.04-.08-.08-.12-.12-.04-.04-.08-.08-.13-.12-.04-.04-.09-.08-.13-.12-.04-.04-.09-.08-.13-.12-.04-.05-.09-.08-.13-.12-.11-.13-.24-.24-.38-.34-.05-.04-.09-.09-.14-.12-.05-.04-.09-.08-.14-.12-.05-.04-.09-.08-.14-.12-.05-.04-.09-.08-.14-.12-.05-.04-.09-.08-.15-.12-.05-.04-.09-.08-.15-.12-.05-.04-.1-.09-.15-.12-.05-.04-.1-.08-.15-.12-.05-.04-.1-.08-.15-.12-.05-.04-.1-.08-.16-.12-.05-.04-.1-.08-.16-.12-.05-.04-.11-.08-.16-.12-.05-.04-.11-.08-.16-.12-.05-.04-.11-.08-.17-.12-.05-.04-.11-.08-.17-.12-.05-.04-.11-.08-.17-.12-.06-.04-.11-.08-.17-.12-.06-.05-.11-.08-.17-.12-.06-.05-.12-.08-.18-.13-.06-.05-.12-.08-.18-.13-.06-.05-.12-.08-.18-.13-.06-.05-.12-.08-.18-.13-.06-.05-.12-.08-.19-.13-.06-.05-.12-.08-.19-.13-.06-.05-.13-.08-.19-.13-.06-.05-.13-.08-.19-.13-.06-.05-.13-.08-.19-.13-.12-.1-.25-.18-.39-.25-.07-.04-.13-.09-.2-.12-.07-.04-.13-.09-.2-.12-.07-.04-.13-.09-.2-.12-.07-.04-.13-.09-.2-.12-.07-.04-.13-.09-.2-.13-.07-.04-.13-.09-.21-.12-.07-.04-.14-.09-.21-.13-.07-.04-.14-.09-.21-.13-.07-.04-.14-.09-.21-.13-.07-.04-.14-.09-.21-.13-.07-.04-.14-.09-.22-.13-.07-.04-.14-.09-.22-.13-.07-.05-.14-.09-.22-.13-.07-.05-.15-.09-.22-.13-.07-.05-.15-.09-.22-.13-.07-.05-.15-.09-.23-.13-.07-.05-.15-.09-.23-.13-.07-.05-.15-.09-.23-.13-.08-.05-.15-.09-.23-.13-.08-.05-.15-.09-.24-.13-.08-.05-.16-.09-.24-.13-.08-.05-.16-.09-.24-.13-.08-.05-.16-.09-.24-.13-.08-.05-.16-.09-.24-.13-.08-.05-.16-.09-.25-.13-.08-.05-.16-.09-.25-.13-.08-.05-.16-.09-.25-.13-.08-.05-.17-.09-.25-.13-.08-.05-.17-.09-.25-.13-.08-.05-.17-.09-.26-.13-.08-.05-.17-.09-.26-.13-.08-.05-.17-.09-.26-.13-.08-.05-.17-.09-.26-.13-.08-.05-.17-.09-.26-.13-.09-.05-.18-.09-.27-.13-.02-.01-.04-.02-.07-.03-.05-.02-.09-.03-.14-.05,0,0,0,0,0,0-.08-.05-.18-.08-.27-.13-.08-.05-.18-.08-.27-.13-.08-.05-.18-.08-.27-.13-.08-.05-.18-.08-.27-.13-.09-.05-.18-.08-.27-.13-.09-.05-.18-.08-.28-.13-.09-.05-.18-.08-.28-.13-.09-.05-.19-.08-.28-.13-.09-.05-.19-.08-.28-.13-.09-.06-.19-.08-.28-.13-.09-.06-.19-.08-.28-.13-.09-.06-.19-.08-.29-.13-.09-.06-.19-.08-.29-.13-.09-.06-.19-.08-.29-.13-.09-.06-.19-.08-.29-.12-.09-.06-.2-.08-.29-.13-.09-.06-.2-.08-.3-.13-.09-.06-.2-.08-.3-.12-.09-.06-.2-.08-.3-.13-.09-.06-.2-.08-.3-.12-.09-.06-.2-.08-.3-.12-.09-.06-.2-.08-.31-.12-.09-.06-.2-.08-.31-.12-.09-.06-.21-.08-.31-.12-.09-.06-.21-.08-.31-.12-.09-.06-.21-.08-.31-.12-.21-.13-.45-.23-.71-.28-.11-.04-.2-.1-.31-.12-.11-.04-.2-.1-.31-.12-.11-.04-.2-.1-.31-.12-.11-.04-.2-.1-.32-.12-.11-.04-.2-.1-.32-.12-.11-.04-.2-.1-.32-.12-.11-.04-.21-.1-.32-.12-.11-.04-.2-.1-.32-.12-1.32.85-2.55,1.64-3.67,2.37.05.02.1.05.16.06.11.05.21.11.33.14.11.05.21.11.33.14.11.05.21.11.33.14.11.05.21.11.33.14.09.06.2.08.3.13.1.06.21.09.32.13.1.06.21.09.32.13.09.06.21.09.32.13.09.06.21.09.31.14.09.06.21.09.31.14.09.06.21.09.31.14.09.06.21.09.31.14.09.06.2.09.31.14.09.06.2.09.31.14.09.06.2.09.3.14.09.06.2.09.3.14.09.06.2.09.3.14.09.06.2.09.3.14.09.06.2.09.3.14.09.06.2.09.3.14.09.06.19.09.29.14.09.06.19.09.29.14.09.06.19.09.29.14.09.06.19.09.29.14.09.06.19.09.29.14.09.06.19.09.29.14.09.06.19.09.28.14.09.06.18.09.28.14.09.06.18.09.28.14.09.06.18.09.28.14.09.06.18.09.28.14.09.06.18.09.27.14.09.06.18.09.27.14.09.06.18.09.27.14.09.06.18.09.27.14.08.06.17.09.27.14.08.06.17.09.27.14.08.05.17.09.26.14.08.05.17.1.26.14.08.05.17.1.26.14.08.05.17.1.26.14.07.05.14.09.21.12.1.07.2.12.3.17.08.05.16.1.25.14.08.05.16.1.25.14.08.05.16.1.24.14.08.05.16.1.24.14.08.05.16.1.24.14.08.05.16.1.24.14.08.05.15.1.24.14.08.05.15.1.24.14.08.05.15.1.23.14.07.05.15.1.23.14.07.05.15.1.23.14.07.05.15.1.23.14.07.05.15.1.23.14.07.05.15.1.22.14.07.05.14.1.22.14.07.05.14.1.22.14.07.05.14.1.22.14.07.05.14.1.22.14.07.05.14.1.21.14.07.05.14.1.21.14.07.05.14.1.21.14.07.05.13.1.21.14.01,0,.03.02.04.03.04.03.09.06.13.09.01,0,.02.01.03.02.01,0,.03.02.04.03.06.05.13.09.2.13.06.05.13.09.2.13.06.05.13.09.2.13.06.05.13.09.19.13.06.05.13.09.19.13.06.05.13.09.19.13.06.05.12.09.19.13.06.05.12.09.19.13.06.05.12.09.18.13.06.05.12.09.18.13.06.05.12.09.18.13.06.05.12.09.18.13.06.05.11.09.18.13.06.05.11.09.17.13.05.05.11.09.17.13.05.05.11.09.17.13.05.05.11.09.17.13.05.05.11.09.16.13.05.05.1.09.16.13.05.05.1.09.16.13.05.05.1.09.16.13.05.04.1.09.15.13.05.04.1.09.15.13.05.04.1.09.15.13.05.04.1.09.15.13.05.04.09.09.15.13.05.04.09.09.14.13.02.02.04.04.07.06.04.05.09.08.13.12.04.05.09.08.13.13.04.05.09.08.13.13.04.05.09.08.13.13.04.05.08.08.13.13.04.05.08.08.12.13.04.04.08.08.12.13.04.04.08.08.12.13.04.04.08.08.12.13.04.04.08.08.12.13.04.04.07.08.11.13.04.04.07.08.11.12.04.04.07.08.11.12.04.04.07.08.11.12.03.04.07.09.1.12.03.04.06.09.1.12.03.04.06.08.1.12.03.04.06.09.1.12.02.03.04.05.06.08.02.04.06.08.08.11.02.04.06.08.08.12.02.04.05.08.08.12.02.04.05.08.08.12.02.04.05.08.08.12.02.04.05.08.07.12.02.04.05.08.07.12.02.04.04.08.07.12.02.04.04.08.07.12.02.04.04.08.06.12.02.04.04.08.06.12.02.03.03.07.05.11.01.03.03.05.04.08,0,0,0,.02,0,.03.01.03.03.06.04.09,0,.01,0,.02,0,.04,0,.03.03.05.04.07,0,.02,0,.03.01.05,0,.02.02.04.03.06,0,.02,0,.04.01.06s.02.03.03.05c0,.02,0,.04.02.07,0,.01.01.03.02.04,0,.03.01.05.02.08,0,.01.01.02.02.03,0,.03.01.06.02.09,0,0,0,0,0,.01,0,.03.02.06.02.1,0,.03.01.07.02.1,0,.03,0,.07.02.1,0,.03,0,.07.01.1h0s-.04.05-.05.08c-.02.03-.04.05-.06.08-.01.02-.03.04-.05.06-.03.03-.05.06-.08.08-.03.03-.06.06-.09.09-.03.03-.07.06-.1.1-.04.03-.07.06-.1.1-.04.03-.08.06-.11.1-.04.03-.08.06-.12.1,0,0-.02.01-.02.02-.05.03-.09.07-.14.11-.05.03-.1.07-.15.11-.05.03-.11.07-.16.11-.06.03-.11.07-.16.11-.06.04-.12.07-.17.11-.06.04-.12.07-.18.11-.06.04-.13.07-.19.11-.06.04-.14.07-.2.11-.01,0-.03.02-.05.02,0,0,0,0,0,0-.08.03-.14.08-.21.11-.01,0-.02,0-.04.01-.07.03-.13.07-.2.1-.02,0-.04,0-.06.02-.07.03-.12.07-.18.1-.03.01-.06.01-.09.03-.06.02-.11.06-.17.09-.04.01-.08.02-.11.03-.05.02-.1.06-.15.08-.05.02-.09.02-.14.04-.05.02-.09.05-.13.07-.06.02-.11.03-.17.05-.04.02-.07.04-.11.06-.07.02-.13.03-.2.06-.03.01-.06.04-.09.05-.08.03-.15.04-.23.07-.03.01-.05.03-.07.04-.09.03-.17.04-.26.08-.02,0-.03.02-.05.03-.1.03-.2.05-.29.09-.01,0-.02.01-.03.02-.11.03-.22.05-.32.1,0,0,0,0,0,0-.01,0-.02,0-.03,0-.12.02-.24.07-.36.11-.13.02-.25.07-.37.11-.13.02-.26.07-.39.1-.13.02-.26.06-.4.1-.14.02-.27.06-.41.1-.14.02-.28.06-.42.1-.15.02-.29.05-.43.09-.15.02-.3.05-.45.09-.15.02-.31.05-.46.09-.16.02-.31.05-.47.09-.16.02-.32.04-.48.08-.17.02-.33.04-.5.08-.17.02-.34.04-.51.08-.18.01-.35.03-.52.07-.18.01-.36.03-.54.07-.18.01-.37.03-.55.07-.15,0-.3.02-.46.05-.2,0-.4.03-.59.06-.2,0-.41.03-.61.06-.21,0-.41.02-.62.06-.21,0-.42.02-.64.05-.17,0-.35.01-.52.03-.09,0-.18,0-.27,0-.07,0-.14,0-.22,0-.07,0-.14,0-.22,0-.07,0-.14,0-.22,0-.07,0-.14,0-.22,0-.07,0-.14,0-.22,0-.07,0-.14,0-.22,0-.07,0-.14,0-.22,0-.07,0-.14,0-.22,0-.07,0-.14,0-.22,0-.07,0-.15,0-.22,0-.07,0-.15,0-.22,0-.07,0-.15,0-.22,0-.07,0-.15,0-.22,0-.07,0-.15,0-.22,0-.07,0-.15,0-.22,0-.07,0-.15,0-.22,0-.07,0-.15,0-.22,0-.07,0-.15,0-.22,0-.07,0-.15,0-.22,0-.07,0-.15,0-.22,0-.07,0-.15,0-.22,0-.07,0-.15,0-.22,0-.07,0-.15,0-.22,0-.08,0-.15,0-.22,0-.07,0-.15,0-.22,0-.08,0-.15,0-.22,0-.08,0-.15,0-.23,0-.08,0-.15,0-.23,0-.08,0-.15,0-.23,0-.08,0-.15,0-.23,0-.08,0-.15,0-.23,0-.08,0-.15,0-.23,0-.08,0-.15,0-.23,0-.08,0-.15-.01-.23,0-.08,0-.15-.01-.23,0-.08,0-.15-.01-.23,0-.08,0-.15-.01-.23,0-.08,0-.15-.01-.23,0-.08,0-.15-.01-.23,0-.08,0-.15-.01-.23,0-.08,0-.15-.01-.23-.01-.08,0-.15-.01-.23-.01-.08,0-.15-.01-.23-.01-.08,0-.15-.01-.23-.01-.08,0-.15-.02-.23-.01-.08,0-.15-.02-.23-.01-.05,0-.09,0-.14,0-.08-.01-.15,0-.23-.01-.08-.01-.16,0-.23-.01-.08-.01-.16,0-.23-.01-.08-.01-.16,0-.23-.02-.08-.01-.16,0-.23-.02-.08-.01-.16,0-.23-.02-.08-.01-.16,0-.23-.02-.08-.01-.16,0-.23-.02-.08-.01-.16,0-.23-.02-.08-.01-.16-.01-.24-.02-.08-.01-.16-.01-.23-.02-.08-.01-.16-.01-.24-.02-.08-.01-.16-.01-.24-.02-.08-.01-.16-.01-.24-.02-.08-.01-.16-.01-.24-.02-.08-.01-.16-.01-.24-.02-.08-.01-.16-.01-.24-.02-.08-.01-.16-.01-.24-.02-.08-.01-.16-.01-.24-.02-.08-.01-.16-.01-.24-.02-.08-.01-.16-.01-.24-.02-.08-.01-.16-.01-.24-.02-.08-.01-.16-.01-.24-.02-.08-.01-.16-.02-.24-.02-.08-.01-.16-.02-.24-.02-.08-.01-.16-.02-.24-.02-.08-.01-.16-.02-.24-.03-.08-.01-.16-.02-.24-.03-.08-.01-.16-.02-.24-.03-.08-.01-.16-.02-.24-.03-.08-.01-.16-.02-.24-.03-.08-.01-.16-.02-.24-.03-.08-.01-.16-.02-.24-.03-.08-.01-.16-.02-.24-.03-.08-.01-.16-.02-.24-.03-.08-.01-.16-.02-.24-.03-.08-.01-.16-.02-.24-.03-.08-.01-.16-.02-.24-.03-.08-.01-.16-.02-.24-.03-.08-.01-.16-.02-.24-.03-.08-.01-.16-.02-.24-.03-.08-.01-.16-.02-.25-.03-.08-.01-.16-.02-.25-.03-.08-.01-.16-.02-.25-.03-.08-.01-.16-.02-.25-.03-.08-.01-.16-.02-.25-.03-.08-.01-.16-.02-.25-.03-.08-.01-.16-.02-.25-.03-.08-.01-.16-.03-.25-.03-.08-.01-.16-.03-.25-.03-.08-.01-.16-.03-.25-.03-.08-.01-.16-.03-.25-.04-.08-.01-.16-.03-.25-.04-.08-.01-.16-.03-.25-.04-.08-.01-.16-.03-.25-.04-.08-.01-.16-.03-.25-.04-.08-.01-.17-.03-.25-.04-.08-.01-.17-.03-.25-.04-.08-.01-.17-.03-.25-.04-.08-.01-.17-.03-.25-.04-.08-.01-.17-.03-.25-.04-.08-.01-.17-.03-.25-.04-.08-.01-.17-.03-.25-.04-.08-.01-.17-.03-.25-.04-.08-.01-.17-.03-.25-.04-.08-.01-.17-.03-.25-.04-.08-.01-.17-.03-.25-.04-.08-.01-.17-.03-.25-.04-.08-.01-.17-.03-.25-.04-.08-.01-.17-.03-.25-.04-.08-.01-.17-.03-.25-.04-.08-.01-.17-.03-.25-.04-.08-.01-.17-.03-.25-.04-.09-.01-.17-.03-.25-.04-.09-.01-.17-.03-.25-.04-.08-.01-.17-.03-.25-.04-.08-.01-.17-.04-.25-.04-.09-.01-.17-.04-.26-.05-.09-.01-.17-.04-.25-.05-.09-.01-.17-.04-.25-.05-.09-.01-.17-.04-.26-.05-.09-.01-.17-.04-.26-.05-.09-.01-.17-.04-.26-.05-.09-.01-.17-.04-.26-.05-.09-.01-.17-.04-.26-.05-.09-.01-.17-.04-.26-.05-.09-.01-.17-.04-.26-.05-.09-.01-.17-.04-.26-.05-.09-.01-.17-.04-.26-.05-.09-.01-.17-.04-.26-.05-.09-.01-.17-.04-.26-.05-.09-.01-.17-.04-.26-.05-.09-.01-.17-.04-.26-.05-.09-.01-.17-.04-.26-.05-.09-.01-.17-.04-.26-.05-.09-.01-.17-.04-.26-.05-.09-.01-.17-.04-.26-.05-.09-.01-.17-.04-.26-.05-.09-.01-.17-.04-.26-.05-.09-.01-.17-.04-.26-.05-.09-.01-.17-.04-.26-.05-.09-.02-.17-.04-.26-.05-.09-.01-.17-.04-.26-.05-.09-.02-.17-.04-.26-.05-.09-.02-.17-.04-.26-.06-.09-.02-.17-.05-.26-.06-.09-.02-.17-.05-.26-.06-.04-.01-.08-.01-.12-.02-.08-.03-.17-.03-.26-.06-.08-.03-.17-.03-.26-.06-.08-.03-.17-.03-.26-.06-.09-.03-.18-.04-.26-.06-.08-.03-.18-.04-.26-.06-.08-.03-.17-.04-.26-.06-.09-.03-.18-.04-.26-.06-.09-.03-.18-.04-.26-.06-.09-.03-.18-.04-.26-.06-.09-.03-.18-.04-.26-.06-.09-.03-.18-.04-.26-.06-.09-.03-.18-.04-.26-.06-.09-.03-.18-.04-.26-.06-.09-.03-.18-.04-.26-.06-.09-.03-.18-.04-.26-.06-.09-.03-.18-.04-.26-.06-.09-.03-.18-.04-.26-.06-.09-.03-.18-.04-.26-.06-.09-.03-.18-.04-.26-.06-.09-.03-.18-.04-.26-.06-.09-.03-.18-.04-.26-.06-.09-.03-.18-.04-.26-.06-.09-.03-.18-.04-.27-.06-.09-.03-.18-.04-.27-.06-.09-.03-.18-.04-.26-.06-.09-.03-.18-.04-.27-.07-.09-.03-.18-.04-.27-.07-.09-.03-.18-.04-.27-.07-.09-.03-.18-.04-.27-.07-.09-.03-.18-.04-.27-.07-.09-.03-.18-.04-.27-.07-.09-.03-.18-.04-.27-.07-.09-.03-.18-.04-.27-.07-.09-.03-.18-.04-.27-.07-.09-.03-.18-.04-.27-.07-.09-.03-.18-.04-.27-.07-.09-.03-.18-.05-.27-.07-.09-.03-.18-.05-.27-.07-.09-.03-.18-.05-.27-.07-.09-.03-.18-.05-.27-.07-.09-.03-.18-.05-.27-.07-.09-.03-.18-.05-.27-.07-.09-.03-.18-.05-.27-.07-.09-.03-.18-.05-.27-.07-.09-.03-.18-.05-.27-.07-.09-.03-.18-.05-.27-.07-.09-.03-.18-.05-.27-.07-.09-.03-.18-.05-.27-.07-.09-.03-.18-.05-.27-.07-.09-.03-.18-.05-.27-.07-.09-.03-.18-.05-.27-.07-.09-.03-.18-.05-.27-.07-.09-.03-.18-.05-.27-.07-.09-.03-.18-.05-.27-.07-.09-.03-.18-.05-.27-.07-.09-.03-.18-.05-.27-.07-.09-.03-.18-.05-.27-.08-.09-.03-.18-.05-.27-.08-.09-.03-.18-.05-.27-.08-.09-.03-.18-.05-.27-.08-.09-.03-.18-.05-.27-.08-.09-.03-.18-.05-.27-.08-.09-.03-.18-.05-.27-.08-.09-.03-.18-.05-.27-.08-.09-.03-.18-.05-.27-.08-.09-.03-.18-.05-.27-.08-.09-.03-.18-.05-.27-.08-.09-.03-.18-.05-.27-.08-.09-.03-.18-.05-.27-.08-.09-.03-.18-.05-.27-.08-.09-.03-.18-.05-.27-.08-.09-.03-.18-.05-.27-.08-.09-.03-.18-.06-.27-.08-.09-.03-.18-.06-.27-.08-.09-.03-.18-.06-.27-.08-.09-.03-.18-.06-.27-.08-.09-.03-.18-.06-.27-.08-.09-.03-.18-.06-.27-.08-.09-.03-.18-.06-.27-.08-.09-.03-.18-.06-.27-.08-.09-.03-.18-.06-.27-.08-.09-.03-.18-.06-.27-.08-.09-.03-.18-.06-.27-.08-.09-.03-.18-.06-.27-.08-.09-.03-.18-.06-.27-.08-.09-.03-.18-.06-.27-.08-.09-.03-.18-.06-.27-.08-.09-.03-.18-.06-.27-.08-.09-.03-.18-.06-.27-.08-.09-.03-.18-.06-.27-.08-.09-.03-.18-.06-.27-.09-.09-.03-.18-.06-.27-.09-.09-.03-.18-.06-.27-.09-.09-.03-.18-.06-.27-.09-.09-.03-.18-.06-.27-.09-.09-.03-.18-.06-.27-.09-.09-.03-.18-.06-.27-.09-.09-.03-.18-.06-.27-.09-.09-.03-.18-.06-.27-.09-.09-.03-.18-.06-.27-.09-.09-.03-.18-.06-.27-.09-.09-.03-.18-.06-.27-.09-.09-.03-.18-.06-.27-.09-.09-.03-.18-.06-.27-.09-.09-.03-.18-.06-.27-.09-.09-.03-.18-.06-.27-.09-.09-.03-.18-.06-.27-.09-.09-.03-.18-.06-.27-.09-.09-.03-.18-.06-.27-.09-.09-.03-.18-.06-.28-.09-.09-.03-.18-.06-.27-.09-.09-.03-.18-.07-.28-.09-.09-.03-.18-.07-.27-.09-.09-.03-.18-.07-.28-.09-.09-.03-.18-.07-.28-.09-.09-.03-.18-.07-.28-.09-.09-.03-.18-.07-.27-.09-.09-.03-.18-.07-.28-.09-.09-.03-.18-.07-.28-.09-.09-.03-.18-.07-.28-.09-.09-.03-.18-.07-.28-.09-.09-.03-.18-.07-.28-.09-.09-.03-.18-.07-.28-.09-.09-.03-.18-.07-.28-.09-.09-.03-.18-.07-.28-.09-.09-.03-.18-.07-.28-.09-.09-.03-.18-.07-.28-.09-.09-.03-.18-.07-.28-.09-.09-.03-.18-.07-.28-.1-.09-.03-.18-.07-.28-.09-.09-.03-.18-.07-.28-.1-.09-.03-.18-.07-.28-.1-.09-.03-.18-.07-.28-.1-.09-.03-.18-.07-.28-.1-.09-.03-.18-.07-.28-.1-.09-.03-.18-.07-.28-.1-.09-.03-.18-.07-.28-.1-.09-.03-.18-.07-.28-.1-.09-.03-.18-.07-.28-.1-.09-.03-.18-.07-.28-.1-.09-.03-.18-.07-.28-.1-.09-.03-.18-.07-.28-.1-.09-.03-.18-.07-.28-.1-.09-.03-.18-.07-.28-.1-.09-.03-.18-.07-.28-.1-.09-.03-.18-.07-.28-.1-.09-.03-.18-.07-.28-.1-.09-.03-.18-.07-.28-.1-.09-.03-.18-.07-.28-.1-.09-.03-.18-.07-.28-.1-.09-.03-.18-.07-.28-.1-.09-.03-.18-.07-.28-.1-.09-.03-.18-.07-.28-.1-.09-.03-.18-.07-.28-.1-.09-.03-.18-.07-.28-.1-.09-.03-.18-.08-.28-.1-.09-.03-.18-.08-.28-.1-.09-.03-.18-.08-.28-.1-.09-.03-.18-.08-.28-.1-.09-.03-.18-.08-.28-.1-.09-.03-.18-.08-.28-.1-.09-.03-.18-.08-.28-.1-.09-.03-.18-.08-.28-.1-.09-.03-.18-.08-.28-.1-.09-.03-.18-.08-.28-.1-.09-.03-.18-.08-.28-.1-.09-.03-.18-.08-.28-.1-.09-.03-.18-.08-.28-.1-.09-.03-.18-.08-.28-.1-.09-.03-.18-.08-.28-.1-.09-.03-.18-.08-.28-.1-.09-.03-.18-.08-.28-.1-.09-.03-.18-.08-.28-.11-.09-.03-.18-.08-.28-.11-.09-.03-.18-.08-.28-.11-.05-.02-.1-.03-.14-.05-.03,0-.06-.03-.09-.04-.09-.04-.18-.07-.27-.11-.09-.04-.18-.07-.28-.11-.09-.04-.18-.07-.27-.11-.09-.04-.18-.07-.28-.11-.09-.04-.18-.07-.27-.11-.09-.04-.18-.07-.27-.11-.09-.04-.18-.07-.27-.11-.09-.04-.18-.07-.28-.11-.09-.04-.18-.07-.27-.11-.09-.04-.18-.07-.27-.11-.09-.04-.18-.07-.27-.11-.09-.04-.18-.07-.27-.11-.09-.04-.18-.07-.27-.11-.09-.04-.18-.07-.27-.11-.09-.04-.18-.07-.27-.11-.09-.04-.18-.07-.27-.11-.09-.04-.18-.07-.27-.11-.09-.04-.18-.07-.27-.11-.09-.04-.18-.07-.27-.11-.09-.04-.18-.07-.27-.11-.09-.04-.18-.07-.27-.11-.09-.04-.18-.07-.27-.11-.09-.04-.18-.07-.27-.11-.09-.04-.18-.07-.27-.11-.09-.04-.18-.07-.27-.11-.09-.04-.18-.07-.27-.11-.09-.04-.18-.07-.27-.11-.09-.04-.18-.07-.27-.11-.09-.04-.18-.07-.27-.11-.09-.04-.18-.07-.27-.11-.09-.04-.18-.07-.27-.11-.09-.04-.18-.07-.27-.11-.09-.04-.18-.07-.27-.11-.09-.04-.18-.07-.27-.11-.09-.04-.18-.07-.27-.11-.09-.04-.18-.07-.27-.11-.09-.04-.18-.07-.27-.11-.09-.04-.18-.07-.27-.11-.09-.04-.18-.07-.27-.11-.09-.04-.18-.07-.27-.11-.09-.04-.18-.07-.27-.11-.09-.04-.18-.07-.27-.11-.09-.04-.18-.07-.27-.11-.09-.04-.18-.07-.27-.11-.09-.04-.18-.07-.27-.11-.09-.04-.18-.07-.27-.11-.09-.04-.18-.07-.27-.11-.09-.04-.18-.07-.27-.11-.09-.04-.18-.07-.27-.12-.09-.04-.18-.07-.27-.12-.09-.04-.18-.07-.27-.12-.09-.04-.18-.08-.27-.12-.09-.04-.18-.08-.27-.12-.09-.04-.18-.08-.27-.12-.09-.04-.18-.08-.27-.12-.09-.04-.18-.08-.27-.12-.09-.04-.18-.08-.27-.12-.09-.04-.18-.08-.27-.12-.09-.04-.18-.08-.27-.12-.09-.04-.18-.08-.27-.12-.09-.04-.18-.08-.27-.12-.09-.04-.18-.08-.27-.12-.09-.04-.18-.08-.27-.12-2.01-1.01-4.47-1.02-6.56.18-3.31,1.91-4.44,6.14-2.53,9.44.96,1.65,2.49,2.76,4.2,3.22.09.03.18.08.28.1.09.03.18.08.28.1.09.03.18.08.28.1.09.03.18.08.28.1.09.03.18.08.28.1.09.03.18.08.28.1.09.03.18.08.28.1.09.03.18.08.28.1.09.03.18.08.28.1.09.03.18.08.28.1.09.03.18.08.28.1.09.03.18.08.28.1.09.03.18.07.28.1.09.03.18.07.28.1.09.03.18.07.28.1.09.03.18.07.28.1.09.03.18.07.28.1.09.03.18.07.28.1.09.03.18.07.28.1.09.03.18.07.28.1.09.03.18.07.28.1.09.03.18.07.28.1.09.03.18.07.28.1.09.03.18.07.28.1.09.03.18.07.28.1.09.03.18.07.28.1.09.03.18.07.28.1.09.03.18.07.28.1.09.03.18.07.28.1.09.03.18.07.28.1.09.03.18.07.28.1.09.03.18.07.28.1.09.03.18.07.28.1.09.03.18.07.28.1.09.03.18.07.28.1.09.03.18.07.28.1.09.03.18.07.28.1.09.03.18.07.28.1.09.03.18.07.28.1.09.03.18.07.28.1.09.03.18.07.28.1.09.03.18.07.28.1.09.03.18.07.28.1.09.03.18.07.28.09.09.03.18.07.28.09.09.03.18.07.28.09.09.03.18.07.28.09.09.03.18.07.28.09.09.03.18.07.28.09.09.03.18.07.28.09.09.03.18.07.28.09.09.03.18.07.28.09.09.03.18.07.28.09.09.03.18.07.28.09.09.03.18.07.28.09.09.03.19.07.28.09.09.03.19.07.28.09.09.03.18.07.28.09.09.03.19.07.28.09.09.03.19.07.28.09.09.03.18.07.28.09.09.03.19.07.28.09.09.03.18.07.28.09.09.03.19.07.28.09.09.03.18.07.28.09.09.03.19.07.28.09.09.03.19.06.28.09.09.03.19.06.28.09.09.03.19.06.28.09.09.03.19.06.28.09.09.03.19.06.28.09.09.03.19.06.28.09.09.03.19.06.28.09.09.03.19.06.28.09.09.03.19.06.28.09.09.03.19.06.28.09.09.03.19.06.28.09.09.03.19.06.28.09.09.03.19.06.28.09.09.03.19.06.28.09.09.03.19.06.28.09.09.03.19.06.28.09.09.03.19.06.28.09.09.03.19.06.28.09.09.03.19.06.28.09.09.03.19.06.28.09.09.03.19.06.28.09.09.03.19.06.28.09.09.03.19.06.28.09.09.03.19.06.28.09.09.03.19.06.28.08.09.03.19.06.28.08.09.03.19.06.28.08.09.03.19.06.28.08.09.03.19.06.28.08.09.03.19.06.28.08.09.03.19.06.28.08.09.03.19.06.28.08.09.03.19.06.28.08.09.03.19.06.28.08.09.03.19.06.28.08.09.03.19.06.28.08.09.03.19.06.28.08.09.03.19.06.28.08.09.03.19.06.28.08.09.03.19.06.28.08.09.03.19.06.28.08.09.03.19.06.28.08.09.03.19.06.28.08.09.03.19.06.28.08.09.03.19.06.28.08.09.03.19.06.28.08.09.03.19.05.28.08.09.03.19.06.28.08.09.03.19.05.28.08.09.03.19.05.28.08.09.03.19.05.28.08.09.03.19.05.28.08.09.03.19.05.28.08.09.03.19.05.28.08.09.03.19.05.28.08.09.03.19.05.28.08.09.03.19.05.28.08.09.03.19.05.28.08.09.03.19.05.28.08.09.03.19.05.28.08.09.03.19.05.28.08.09.03.19.05.28.08.09.03.19.05.28.08.09.03.19.05.28.08.09.03.19.05.28.08.09.03.19.05.28.07.09.03.19.05.28.07.09.03.19.05.28.07.09.03.19.05.28.07.09.03.19.05.28.07.09.03.19.05.28.07.09.03.19.05.28.07.09.03.19.05.28.07.09.03.19.05.28.07.09.03.19.05.28.07.09.03.19.05.28.07.09.03.19.05.28.07.09.03.19.05.28.07.09.03.19.05.28.07.09.03.19.05.28.07.09.03.19.05.28.07.09.03.19.05.28.07.09.03.19.05.28.07.09.03.19.05.28.07.09.03.19.05.28.07.09.03.19.05.28.07.09.03.19.05.28.07.09.03.19.05.28.07.09.03.19.04.28.07.09.03.19.04.28.07.09.03.19.04.28.07.09.03.19.04.28.07.09.03.19.04.28.07.09.03.18.04.28.07.09.03.19.04.28.07.09.03.19.04.28.07.09.03.18.04.28.07.09.03.19.04.28.07.09.03.18.04.28.07.09.03.18.04.28.07.09.03.19.04.28.07.09.03.18.04.28.07.09.03.19.04.28.06.09.03.18.04.28.06.09.03.18.04.28.06.09.03.18.04.28.06.09.03.18.04.28.06.09.03.18.04.28.06.09.03.18.04.28.06.09.03.18.04.28.06.09.03.18.04.28.06.09.03.18.04.28.06.09.03.18.04.28.06.09.03.18.04.28.06.09.03.18.04.28.06.09.03.18.04.27.06.09.03.18.04.28.06.09.03.18.04.28.06.09.03.18.04.28.06.09.03.18.04.27.06.09.03.18.04.27.06.09.03.18.04.28.06.09.03.18.04.27.06.09.03.18.04.27.06.09.03.18.04.27.06.09.03.18.04.27.06.09.03.18.03.27.06.09.03.18.03.27.06.09.03.18.03.27.06.09.03.18.03.27.06.09.03.18.03.27.06.09.03.18.03.27.06.33.1.66.17,1,.2.09.01.18.05.27.06.09.01.18.04.27.05.09.01.18.04.27.05.09.01.18.04.27.05.09.01.18.04.27.05.09.01.18.04.27.05.09.01.18.04.27.05.09.01.18.04.27.05.09.01.18.04.27.05.09.01.18.04.27.05.09.01.18.04.27.05.09.01.18.04.27.05.09.01.18.04.27.05.09.01.18.04.27.05.09.01.18.04.27.05.09.01.18.04.27.05.09.01.18.04.27.05.09.01.18.04.27.05.09.01.18.04.27.05.09.01.18.04.27.05.09.01.18.04.27.05.09.01.18.04.27.05.09.01.18.04.27.05.09.01.18.04.27.05.09.01.18.04.27.05.09.01.18.04.27.05.09.01.18.04.27.05.09.01.18.04.27.05.09.01.18.04.27.05.09.01.18.04.27.05.09.01.18.04.27.05.09.01.18.04.27.05.09.01.18.04.27.04.09.01.18.03.27.04.09.01.18.03.27.04.09.01.18.03.27.04.09.01.18.03.27.04.09.01.18.03.27.04.09.01.18.03.27.04.09.01.18.03.27.04.09.01.18.03.27.04.09.01.18.03.27.04.09.01.17.03.26.04.09.01.18.03.27.04.09.01.18.03.26.04.09.01.18.03.26.04.09.01.18.03.26.04.09.01.17.03.26.04.09.01.17.03.26.04.09.01.17.03.26.04.09.01.17.03.26.04.09.01.17.03.26.04.09.01.17.03.26.04.09.01.17.03.26.04.09.01.17.03.26.04.09.01.17.03.26.04.09.01.17.03.26.04.09.01.17.03.26.04.09.01.17.03.26.04.09.01.17.03.26.04.09.01.17.03.26.03.09.01.17.03.26.03.09.01.17.03.26.03.09.01.17.03.26.03.09.01.17.02.26.03.09.01.17.02.26.03.09.01.17.02.26.03.09.01.17.02.26.03.09.01.17.02.26.03.09.01.17.02.26.03.09.01.17.02.26.03.09.01.17.02.26.03.09.01.17.02.26.03.09.01.17.02.26.03.09.01.17.02.26.03.09.01.17.02.26.03.09.01.17.02.26.03.09.01.17.02.26.03.09.01.17.02.26.03.09.01.17.02.26.03.09.01.17.02.26.03.09.01.17.02.26.03.08.01.17.02.26.03.08.01.17.02.26.03.09.01.17.02.26.03.08.01.17.02.25.03.08.01.17.02.26.03.08.01.17.02.26.02.08.01.17.02.26.02.08.01.17.02.25.02.08.01.17.02.25.02.08.01.17.02.25.02.08.01.17.01.25.02.08.01.17.01.25.02.08.01.17.01.25.02.08.01.17.01.25.02.08.01.17.01.25.02.08.01.17.01.25.02.08.01.17.01.25.02.08.01.17.01.25.02.08.01.17.01.25.02.08.01.17.01.25.02.08.01.17.01.25.02.08.01.17.01.25.02.08.01.17.01.25.02.08.01.17.01.25.02.08.01.17.01.25.02.08.01.17,0,.25.02.08.01.17,0,.25.02.08.01.17,0,.25.02.08.01.17,0,.25.02.08.01.17,0,.25.02.08.01.17,0,.25.02.08.01.17,0,.25.01.08.01.17,0,.25.01.08.01.17,0,.25.01.08.01.17,0,.25.01.08.01.16,0,.25.01.08.01.16,0,.25.01.08.01.16,0,.25.01.08.01.16,0,.25.01.15.02.31.02.47.02.2.02.41.04.62.03.08,0,.16.01.24.01.08,0,.16.01.24,0,.08,0,.16.01.24,0,.08,0,.16.01.24,0,.08,0,.16.01.24,0,.08,0,.16.01.24,0,.08,0,.16.01.24,0,.08,0,.16.01.24,0,.08,0,.16.01.24,0,.08,0,.16.01.24,0,.08,0,.16.01.24,0,.08,0,.16.01.24,0,.08,0,.16,0,.24,0,.08,0,.16,0,.24,0,.08,0,.16,0,.24,0,.08,0,.16,0,.24,0,.08,0,.16,0,.24,0,.08,0,.16,0,.24,0,.08,0,.16,0,.24,0,.08,0,.16,0,.24,0,.08,0,.16,0,.24,0,.08,0,.16,0,.24,0,.08,0,.16,0,.24,0,.08,0,.16,0,.24,0,.08,0,.16,0,.24,0,.08,0,.16,0,.24,0,.08,0,.16,0,.24,0,.08,0,.16,0,.24,0,.08,0,.16,0,.23,0,.08,0,.16,0,.23,0,.08,0,.16,0,.23,0,.08,0,.16,0,.23,0,.08,0,.15,0,.23,0,.08,0,.16,0,.23,0,.08,0,.15,0,.23,0,.08,0,.15,0,.23,0,.08,0,.15,0,.23,0,.08,0,.15,0,.23,0,.08,0,.15,0,.23,0,.08,0,.15,0,.23,0,.08,0,.15,0,.23,0,.08,0,.15,0,.23,0,.08,0,.15,0,.23,0,.08,0,.15,0,.23,0,.08,0,.15,0,.23,0,.08,0,.15,0,.23,0,.08,0,.15,0,.23,0,.08,0,.15,0,.23,0,.08,0,.15,0,.23-.01.08,0,.15,0,.23-.01.08,0,.15,0,.23-.01.08,0,.15,0,.23-.01.08,0,.15,0,.23-.01.08,0,.15,0,.23-.01.08,0,.15,0,.23-.01.08,0,.15,0,.23-.01.07,0,.15,0,.23-.01.07,0,.15,0,.23-.01.07,0,.15,0,.22-.01.07,0,.15-.01.22-.02.07,0,.15-.01.22-.02.07,0,.15-.01.22-.02.07,0,.15-.01.22-.02.07,0,.15-.01.22-.02.07,0,.15-.01.22-.02.07,0,.15-.01.22-.02.07,0,.15-.01.22-.02.07,0,.15-.01.22-.02.07,0,.15-.01.22-.02.07,0,.15-.01.22-.02.07,0,.15-.02.22-.02.07,0,.15-.02.22-.02.07,0,.15-.02.22-.02.07,0,.15-.02.22-.02.07,0,.15-.02.22-.02.07,0,.14-.02.22-.02.07,0,.15-.02.22-.02.07,0,.14-.02.22-.02.07,0,.14-.02.22-.02.16,0,.31-.03.47-.05.22,0,.45-.03.67-.07.23,0,.46-.02.68-.07.25,0,.5-.03.75-.08.22,0,.44-.03.66-.08.22-.01.43-.04.65-.09.21-.01.42-.04.63-.09.21-.02.41-.04.61-.09.2-.02.4-.05.6-.1.2-.02.39-.05.58-.1.19-.02.38-.05.57-.1.19-.02.37-.06.55-.11.18-.02.36-.06.54-.11.18-.02.35-.06.52-.11.17-.02.34-.06.51-.11.17-.03.33-.07.49-.12.16-.03.32-.07.48-.12.16-.03.31-.07.46-.12.15-.03.3-.08.45-.12.15-.03.29-.08.44-.12.24-.05.48-.12.71-.21,0,0,0,0,0,0,.13-.04.26-.07.39-.12.01,0,.02-.01.03-.02.12-.04.23-.06.35-.11.02,0,.04-.02.06-.03.1-.03.21-.05.31-.1.03-.01.05-.03.08-.04.09-.03.19-.05.28-.08.04-.02.07-.04.1-.05.08-.03.16-.04.24-.07.04-.02.08-.05.12-.07.07-.02.14-.04.21-.06.05-.02.09-.05.14-.08.06-.02.12-.03.18-.05.06-.02.11-.06.16-.09.05-.02.1-.02.15-.04.07-.03.12-.07.18-.1.04-.01.08-.02.12-.03.07-.03.13-.07.2-.11.03-.01.06-.01.09-.03.08-.03.14-.08.22-.12.02,0,.04,0,.06-.02.08-.03.16-.09.24-.13.01,0,.02,0,.03,0,.09-.04.17-.09.25-.13,0,0,0,0,0,0,.23-.09.44-.21.63-.34.09-.05.18-.09.27-.15.09-.05.18-.09.26-.15.08-.05.17-.09.25-.15.08-.05.16-.09.24-.15.08-.05.15-.09.22-.15.07-.05.15-.1.22-.15.07-.04.14-.1.21-.14.07-.04.13-.09.2-.14.07-.04.12-.1.19-.14.19-.13.37-.27.53-.43.06-.05.12-.09.17-.15.05-.05.11-.09.16-.14.05-.05.1-.09.15-.14.05-.05.1-.09.15-.14.05-.04.09-.09.14-.14.05-.04.09-.09.13-.13.04-.04.08-.09.12-.13.06-.06.11-.13.17-.19.13-.14.26-.28.37-.43.03-.04.07-.08.1-.13.03-.04.06-.08.09-.12.03-.04.06-.08.09-.12.03-.04.05-.08.08-.12.03-.04.05-.08.07-.11.03-.04.04-.07.07-.11.12-.17.23-.35.31-.54.02-.04.04-.07.06-.11.02-.03.04-.07.05-.1.02-.03.03-.06.05-.1.01-.03.03-.06.04-.09.01-.03.02-.06.04-.09.01-.03.02-.06.03-.08.08-.17.14-.34.18-.52.01-.04.03-.09.04-.13,0-.02.01-.05.02-.07,0-.02.01-.04.02-.07,0-.02,0-.04.01-.06,0-.02,0-.04.01-.05.05-.19.08-.39.08-.59,0-.02,0-.03,0-.05,0-.01,0-.03,0-.04,0-.01,0-.02,0-.04,0-.2,0-.4-.04-.6Z"></path>
</svg>
